# xmcd
#
# Track frame offsets: 
#        150
#        15206
#        30675
#        45281
#        58685
#        75584
#        89828
#        105786
#        124447
#        152564
#        166117
#
# Disc length: 2589 seconds
#
# Revision: 0
# Processed by: cddbd v1.5.2PL0 Copyright (c) Steve Scherf et al.
# Submitted via: ExactAudioCopyFreeDBPlugin 1.0
#
DISCID=740a1b0b
DTITLE=Young Guns Of The Beach - Target Practice (Live From The Shooti
DTITLE=ng Range)
DYEAR=2007
DGENRE=Blues
TTITLE0=Them Changes
TTITLE1=I'll Be Around
TTITLE2=On The Beach
TTITLE3=Hold On I'm Coming
TTITLE4=Can't Get Enough Of Your Love
TTITLE5=Dance To The Music
TTITLE6=Part Time Party Time
TTITLE7=Treat Her Like A Lady
TTITLE8=Use Ta Be My Girl
TTITLE9=Love Man
TTITLE10=Disco Inferno
EXTD=
EXTT0=
EXTT1=
EXTT2=
EXTT3=
EXTT4=
EXTT5=
EXTT6=
EXTT7=
EXTT8=
EXTT9=
EXTT10=
PLAYORDER=
